<svg fill="#111111" role="img" viewBox="0 0 24 24" xmlns="http://www.w3.org/2000/svg"><title>Website</title><path d="M12 2a10 10 0 1 0 0 20 10 10 0 0 0 0-20Zm6.93 6h-3.08a15.6 15.6 0 0 0-1.43-3.37A8.05 8.05 0 0 1 18.93 8ZM12 4.04c.73 1.05 1.32 2.36 1.7 3.96h-3.4c.38-1.6.97-2.91 1.7-3.96ZM4.26 14a8.43 8.43 0 0 1 0-4h3.49A16.74 16.74 0 0 0 7.63 12c0 .68.04 1.35.12 2H4.26Zm.81 2h3.08c.33 1.25.82 2.4 1.43 3.37A8.05 8.05 0 0 1 5.07 16Zm3.08-8H5.07a8.05 8.05 0 0 1 4.51-3.37A15.6 15.6 0 0 0 8.15 8ZM12 19.96c-.73-1.05-1.32-2.36-1.7-3.96h3.4c-.38 1.6-.97 2.91-1.7 3.96ZM14.12 14H9.88a14.78 14.78 0 0 1 0-4h4.24a14.78 14.78 0 0 1 0 4Zm.3 5.37c.61-.97 1.1-2.12 1.43-3.37h3.08a8.05 8.05 0 0 1-4.51 3.37ZM16.25 14c.08-.65.12-1.32.12-2s-.04-1.35-.12-2h3.49a8.43 8.43 0 0 1 0 4h-3.49Z"/></svg>
